<svg width="48" height="48" viewBox="0 0 48 48" fill="none" xmlns="http://www.w3.org/2000/svg">
<path d="M38 18V14C38 10.7 35.3 8 32 8H16C12.7 8 10 10.7 10 14V18C6.7 18 4 20.7 4 24V34C4 37.3 6.7 40 10 40V44H14V40H34V44H38V40C41.3 40 44 37.3 44 34V24C44 20.7 41.3 18 38 18ZM14 14C14 12.9 14.9 12 16 12H32C33.1 12 34 12.9 34 14V19.56C32.78 20.66 32 22.24 32 24V28H16V24C16 22.24 15.22 20.66 14 19.56V14ZM40 34C40 35.1 39.1 36 38 36H10C8.9 36 8 35.1 8 34V24C8 22.9 8.9 22 10 22C11.1 22 12 22.9 12 24V32H36V24C36 22.9 36.9 22 38 22C39.1 22 40 22.9 40 24V34Z" fill="black"/>
</svg>
